<svg width="416" height="292" viewBox="0 0 416 292" fill="none" xmlns="http://www.w3.org/2000/svg">
<path d="M206.79 50.0045H203.38V112.685H206.79V50.0045Z" fill="#B9C56C"/>
<path d="M206.79 133.375H203.38V191.885H206.79V133.375Z" fill="#B9C56C"/>
<path d="M195.51 119.235H110.19V122.655H195.51V119.235Z" fill="#B9C56C"/>
<path d="M299.96 119.235H213.31V122.655H299.96V119.235Z" fill="#B9C56C"/>
<path d="M185.9 148.155C190.05 151.125 196.12 170.965 177.52 175.765C169.83 171.955 157.99 166.255 154.95 164.645C152.09 161.915 151.8 146.454 166.06 142.424C166.68 144.044 169.63 145.314 169.63 145.314C169.63 145.314 167.27 147.875 168.14 151.405C171.71 150.735 173.79 148.575 173.79 148.575C173.79 148.575 176.55 154.075 180.64 154.545C182.12 151.815 181.66 148.755 181.66 148.755C181.66 148.755 183.71 149.275 185.91 148.165L185.9 148.155Z" fill="#002809"/>
<path d="M184.45 146.414C183.13 144.344 179.68 142.364 176.41 142.364C178 140.374 176.12 137.224 176.12 137.224L174.59 138.114C174.59 138.114 176.37 140.504 175.48 142.344C172.19 139.994 167.22 141.254 167.22 141.254C167.22 141.254 168.63 143.524 172.09 144.574C170.73 145.904 169.83 148.964 169.83 148.964C169.83 148.964 173.08 147.994 174.67 146.204C175.28 149.144 179.56 151.594 179.56 151.594C179.56 151.594 180.59 148.484 179.67 146.444C182.96 147.044 184.46 146.404 184.46 146.404L184.45 146.414Z" fill="#002809"/>
<path d="M135.64 182.694L141.77 164.614C142.33 162.954 144.25 162.174 145.83 162.964L150.19 165.154L149.09 178.054L156.16 168.154L164.05 172.114L163.3 180.934L168.45 174.324L177.96 179.094L176.9 184.294L180.75 180.484L192.92 186.594C193.31 186.794 193.17 187.374 192.73 187.374L138.35 186.484C136.39 186.454 135.02 184.544 135.65 182.694H135.64Z" fill="#002809"/>
<path d="M138.5 174.664C137.58 171.024 130.43 160.194 127.03 163.094C124.17 165.534 138.5 174.664 138.5 174.664Z" fill="#002809"/>
<path d="M138.85 174.954C134.15 174.334 122.19 173.944 122.83 178.334C123.38 182.034 138.85 174.954 138.85 174.954Z" fill="#002809"/>
<path d="M139.18 174.824C136.25 172.444 111.95 163.364 110.98 167.694C110.16 171.344 139.18 174.824 139.18 174.824Z" fill="#002809"/>
<path d="M158.33 76.8345C158.29 76.2945 158.19 75.7745 158.02 75.2945C157.46 73.6145 156.2 72.2645 154.59 71.5845C154.13 71.3845 153.63 71.2545 153.12 71.1745C152.82 71.1345 152.53 71.1145 152.23 71.1145C151.81 71.1145 151.43 71.1545 151.03 71.2345H151.02C150.51 71.3345 150.04 71.4945 149.6 71.7045C148.04 72.4445 146.85 73.8245 146.36 75.5045C146.2 76.0145 146.13 76.5545 146.11 77.1145V77.2245C146.11 77.4145 146.11 77.5845 146.13 77.7545C146.17 78.2945 146.29 78.8045 146.46 79.2845C147.05 80.9145 148.31 82.2245 149.91 82.8945H149.92C150.39 83.0845 150.87 83.2145 151.39 83.2745H151.4C151.67 83.3145 151.94 83.3345 152.22 83.3345C152.38 83.3345 152.54 83.3245 152.69 83.3145H152.7C153.23 83.2745 153.75 83.1645 154.23 82.9945C155.9 82.4145 157.22 81.1445 157.87 79.5345C158.07 79.0645 158.2 78.5845 158.28 78.0645C158.32 77.7845 158.33 77.5045 158.33 77.2245C158.33 77.0845 158.33 76.9545 158.32 76.8245L158.33 76.8345ZM152.23 81.9345C149.64 81.9345 147.52 79.8245 147.52 77.2245C147.52 74.6245 149.63 72.5045 152.23 72.5045C154.83 72.5045 156.95 74.6245 156.95 77.2245C156.95 79.8245 154.83 81.9345 152.23 81.9345Z" fill="#002809"/>
<path d="M154.41 77.2245C154.41 78.4245 153.44 79.3945 152.24 79.3945C151.04 79.3945 150.07 78.4245 150.07 77.2245C150.07 76.0245 151.04 75.0545 152.24 75.0545C153.44 75.0545 154.41 76.0245 154.41 77.2245Z" fill="#002809"/>
<path d="M157.98 77.1145L157.1 76.0145L177.94 59.3245C178.05 59.2345 178.08 59.1145 178.08 59.0545C178.08 58.9945 178.08 58.8745 177.98 58.7645L171.26 51.5245C171.15 51.4145 171.03 51.4045 170.97 51.4045C170.9 51.4045 170.78 51.4245 170.68 51.5445L154 72.3145L152.91 71.4345L169.58 50.6745C169.91 50.2645 170.39 50.0245 170.91 50.0045C171.42 49.9645 171.93 50.1945 172.28 50.5745L179 57.8145C179.34 58.1745 179.51 58.6645 179.47 59.1545C179.43 59.6445 179.19 60.1045 178.81 60.4145L157.97 77.1145H157.98Z" fill="#002809"/>
<path d="M174.44 63.1745L166.95 54.8045L167.99 53.8745L175.48 62.2445L174.44 63.1745Z" fill="#002809"/>
<path d="M164.069 58.7264L163.032 59.6664L169.599 66.9138L170.636 65.9737L164.069 58.7264Z" fill="#002809"/>
<path d="M160.458 63.4847L159.418 64.4224L164.944 70.5485L165.983 69.6109L160.458 63.4847Z" fill="#002809"/>
<path d="M156.749 68.0614L155.703 68.9911L160.471 74.3594L161.517 73.4297L156.749 68.0614Z" fill="#002809"/>
<path d="M170.53 104.495C170.53 104.495 170.44 104.495 170.4 104.495C169.91 104.455 169.45 104.215 169.14 103.835L152.44 82.9945L153.54 82.1145L170.23 102.955C170.32 103.065 170.44 103.094 170.5 103.094C170.56 103.094 170.68 103.095 170.79 102.995L178.03 96.2745C178.14 96.1745 178.15 96.0445 178.15 95.9845C178.15 95.9145 178.13 95.7945 178.01 95.6945L157.24 79.0145L158.12 77.9245L178.89 94.6045C179.3 94.9345 179.54 95.4145 179.56 95.9345C179.58 96.4545 179.37 96.9545 178.99 97.3045L171.75 104.024C171.42 104.334 170.98 104.504 170.53 104.504V104.495Z" fill="#002809"/>
<path d="M167.32 100.495L166.38 99.4545L174.75 91.9645L175.69 93.0045L167.32 100.495Z" fill="#002809"/>
<path d="M169.902 88.0367L162.661 94.6099L163.602 95.6466L170.843 89.0733L169.902 88.0367Z" fill="#002809"/>
<path d="M165.132 84.4344L159.007 89.9622L159.945 91.0015L166.07 85.4737L165.132 84.4344Z" fill="#002809"/>
<path d="M160.58 80.7005L155.211 85.4675L156.141 86.5144L161.51 81.7474L160.58 80.7005Z" fill="#002809"/>
<path d="M146.12 77.1145L125.28 60.4245C124.89 60.1145 124.65 59.6545 124.61 59.1645C124.57 58.6745 124.75 58.1845 125.08 57.8145L131.8 50.5745C132.15 50.1945 132.63 49.9745 133.17 50.0045C133.69 50.0245 134.17 50.2645 134.5 50.6745L151.18 71.4445L150.09 72.3245L133.42 51.5545C133.32 51.4345 133.2 51.4145 133.13 51.4145C133.07 51.4145 132.94 51.4145 132.84 51.5345L126.12 58.7745C126.02 58.8845 126.01 59.0045 126.02 59.0645C126.02 59.1245 126.05 59.2445 126.16 59.3345L147 76.0245L146.12 77.1245V77.1145Z" fill="#002809"/>
<path d="M129.66 63.1745L128.61 62.2445L136.1 53.8745L137.15 54.8045L129.66 63.1745Z" fill="#002809"/>
<path d="M140.036 58.7278L133.463 65.9695L134.5 66.9104L141.073 59.6688L140.036 58.7278Z" fill="#002809"/>
<path d="M143.63 63.4795L138.102 69.6037L139.141 70.5417L144.669 64.4175L143.63 63.4795Z" fill="#002809"/>
<path d="M147.366 68.0611L142.599 73.4303L143.646 74.3598L148.413 68.9906L147.366 68.0611Z" fill="#002809"/>
<path d="M133.57 104.494C133.12 104.494 132.68 104.324 132.35 104.014L125.11 97.2945C124.73 96.9445 124.52 96.4445 124.54 95.9245C124.56 95.4045 124.8 94.9245 125.21 94.5945L146.42 77.5345L147.3 78.6245L126.09 95.6845C125.97 95.7845 125.95 95.9045 125.95 95.9645C125.95 96.0345 125.96 96.1545 126.07 96.2645L133.31 102.984C133.42 103.084 133.54 103.084 133.6 103.084C133.66 103.084 133.78 103.054 133.87 102.944L150.56 82.1045L151.66 82.9845L134.97 103.824C134.66 104.204 134.2 104.454 133.71 104.484C133.67 104.484 133.62 104.484 133.58 104.484L133.57 104.494Z" fill="#002809"/>
<path d="M136.78 100.494L128.41 93.0045L129.34 91.9645L137.71 99.4545L136.78 100.494Z" fill="#002809"/>
<path d="M134.197 88.0467L133.257 89.0841L140.504 95.651L141.444 94.6135L134.197 88.0467Z" fill="#002809"/>
<path d="M138.948 84.4332L138.01 85.4728L144.136 90.9985L145.074 89.9589L138.948 84.4332Z" fill="#002809"/>
<path d="M143.525 80.7033L142.596 81.7502L147.965 86.5172L148.894 85.4703L143.525 80.7033Z" fill="#002809"/>
<path d="M139.88 111.404C139.73 111.934 139.58 112.364 139.47 112.684H139.41L139.77 111.404H139.88Z" fill="#002809"/>
<path d="M165.08 111.395L160.02 93.7545L152.18 84.1845L144.08 94.1545C144.08 94.1545 142.73 100.125 141.45 105.385V105.455C140.87 107.775 140.31 109.955 139.89 111.405C139.74 111.935 139.59 112.365 139.48 112.685H165.45L165.08 111.385V111.395ZM148.52 102.605C148.52 98.8545 149.79 94.1045 152.45 94.1045C155.11 94.1045 156.65 98.6345 156.65 102.605C151.85 104.435 148.52 102.605 148.52 102.605Z" fill="#002809"/>
<path d="M233.09 56.8345C233.09 56.8345 232.45 63.1745 242.03 66.4045C242.03 66.4045 243.24 58.7245 233.09 56.8345Z" fill="#002809"/>
<path d="M232.4 65.6145C232.4 65.6145 231.76 71.9545 241.34 75.1845C241.34 75.1845 242.55 67.5045 232.4 65.6145Z" fill="#002809"/>
<path d="M232.4 74.9145C232.4 74.9145 231.76 81.2545 241.34 84.4845C241.34 84.4845 242.55 76.8045 232.4 74.9145Z" fill="#002809"/>
<path d="M232.32 83.7645C232.32 83.7645 231.68 90.1045 241.26 93.3345C241.26 93.3345 242.47 85.6545 232.32 83.7645Z" fill="#002809"/>
<path d="M250.85 57.5845C250.85 57.5845 251.31 63.9545 241.63 66.6145C241.63 66.6145 240.64 58.8645 250.85 57.5845Z" fill="#002809"/>
<path d="M250.85 66.3845C250.85 66.3845 251.31 72.7545 241.63 75.4145C241.63 75.4145 240.64 67.6645 250.85 66.3845Z" fill="#002809"/>
<path d="M250.58 75.6845C250.58 75.6845 251.04 82.0545 241.36 84.7145C241.36 84.7145 240.37 76.9745 250.58 75.6845Z" fill="#002809"/>
<path d="M250.4 84.5245C250.4 84.5245 250.86 90.8945 241.18 93.5545C241.18 93.5545 240.19 85.8145 250.4 84.5245Z" fill="#002809"/>
<path d="M242.34 58.6245C242.31 60.0545 242.3 61.4945 242.25 62.9245C242.24 64.1045 242.21 65.2845 242.19 66.4645C242.18 66.6245 242.18 66.7745 242.18 66.9445C242.14 68.7045 242.11 70.4645 242.06 72.2245C242.05 73.2545 242.03 74.2845 242 75.3145C241.96 77.3045 241.91 79.3045 241.88 81.2845C241.85 82.3845 241.82 83.4745 241.81 84.5845C241.77 86.4345 241.74 88.3045 241.69 90.1545C241.66 91.2445 241.65 92.3445 241.62 93.4345C241.56 96.5545 241.49 99.6545 241.43 102.774C241.36 106.074 241.3 109.384 241.22 112.684H240.18C240.33 106.164 240.46 99.6245 240.6 93.0845C240.63 91.8645 240.66 90.6345 240.67 89.3945C240.71 87.6945 240.74 85.9945 240.79 84.2945C240.8 83.2945 240.83 82.2845 240.85 81.2845C240.85 81.1345 240.85 80.9745 240.86 80.8245C240.89 78.8945 240.93 76.9745 240.98 75.0445C240.99 74.0445 241.02 73.0345 241.04 72.0345C241.08 70.0445 241.13 68.0745 241.16 66.0945C241.19 64.7545 241.22 63.3945 241.25 62.0545C241.28 60.9245 241.29 59.7745 241.32 58.6345C241.33 57.9745 242.36 57.9745 242.35 58.6345L242.34 58.6245Z" fill="#002809"/>
<path d="M258.62 56.8345C258.62 56.8345 257.98 63.1745 267.56 66.4045C267.56 66.4045 268.77 58.7245 258.62 56.8345Z" fill="#002809"/>
<path d="M257.92 65.6145C257.92 65.6145 257.28 71.9545 266.86 75.1845C266.86 75.1845 268.07 67.5045 257.92 65.6145Z" fill="#002809"/>
<path d="M257.92 74.9145C257.92 74.9145 257.28 81.2545 266.86 84.4845C266.86 84.4845 268.07 76.8045 257.92 74.9145Z" fill="#002809"/>
<path d="M257.84 83.7645C257.84 83.7645 257.2 90.1045 266.78 93.3345C266.78 93.3345 267.99 85.6545 257.84 83.7645Z" fill="#002809"/>
<path d="M276.37 57.5845C276.37 57.5845 276.83 63.9545 267.15 66.6145C267.15 66.6145 266.16 58.8745 276.37 57.5845Z" fill="#002809"/>
<path d="M276.38 66.3845C276.38 66.3845 276.84 72.7545 267.16 75.4145C267.16 75.4145 266.17 67.6645 276.38 66.3845Z" fill="#002809"/>
<path d="M276.1 75.6845C276.1 75.6845 276.56 82.0545 266.88 84.7145C266.88 84.7145 265.89 76.9645 276.1 75.6845Z" fill="#002809"/>
<path d="M275.92 84.5245C275.92 84.5245 276.38 90.8945 266.7 93.5545C266.7 93.5545 265.71 85.8045 275.92 84.5245Z" fill="#002809"/>
<path d="M267.88 58.6245C267.85 60.0545 267.82 61.4745 267.79 62.8945C267.76 64.0845 267.73 65.2845 267.72 66.4645C267.71 66.6245 267.71 66.7745 267.71 66.9445C267.67 68.7045 267.64 70.4645 267.59 72.2245C267.58 73.2545 267.56 74.2845 267.53 75.3145C267.49 77.3145 267.44 79.3045 267.41 81.3045C267.38 82.4045 267.35 83.4945 267.34 84.5845C267.3 86.4345 267.27 88.3045 267.22 90.1545C267.19 91.2445 267.18 92.3445 267.15 93.4345C267.09 96.5545 267.02 99.6545 266.96 102.774C266.89 106.074 266.83 109.384 266.75 112.684H265.71C265.86 106.164 265.99 99.6245 266.13 93.0845C266.16 91.8645 266.19 90.6345 266.2 89.3945C266.24 87.6945 266.27 85.9945 266.32 84.2945C266.33 83.2945 266.36 82.2845 266.38 81.2845C266.38 81.1345 266.38 80.9745 266.39 80.8245C266.42 78.8945 266.46 76.9745 266.51 75.0445C266.52 74.0445 266.55 73.0345 266.57 72.0345C266.61 70.0445 266.66 68.0745 266.69 66.0945C266.72 64.7545 266.75 63.3945 266.78 62.0545C266.81 60.9245 266.82 59.7745 266.85 58.6345C266.86 57.9745 267.89 57.9745 267.89 58.6345L267.88 58.6245Z" fill="#002809"/>
<path d="M230.78 171.625C226.61 171.625 223.22 175.005 223.22 179.185C223.22 183.365 226.6 186.745 230.78 186.745C234.96 186.745 238.34 183.365 238.34 179.185C238.34 175.005 234.96 171.625 230.78 171.625ZM230.78 185.985C227.03 185.985 223.97 182.935 223.97 179.175C223.97 175.415 227.02 172.365 230.78 172.365C234.54 172.365 237.59 175.415 237.59 179.175C237.59 182.935 234.54 185.985 230.78 185.985Z" fill="#002809"/>
<path d="M230.78 170.854C226.2 170.854 222.46 174.584 222.46 179.174C222.46 183.764 226.2 187.484 230.78 187.484C235.36 187.484 239.09 183.754 239.09 179.174C239.09 174.594 235.36 170.854 230.78 170.854ZM230.78 185.984C227.03 185.984 223.97 182.934 223.97 179.174C223.97 175.414 227.02 172.364 230.78 172.364C234.54 172.364 237.59 175.414 237.59 179.174C237.59 182.934 234.54 185.984 230.78 185.984Z" fill="#002809"/>
<path d="M270.27 163.214C263.77 163.214 258.51 168.484 258.51 174.984C258.51 181.484 263.77 186.744 270.27 186.744C276.77 186.744 282.03 181.484 282.03 174.984C282.03 168.484 276.77 163.214 270.27 163.214ZM270.27 185.984C264.21 185.984 259.27 181.044 259.27 174.984C259.27 168.924 264.21 163.984 270.27 163.984C276.33 163.984 281.27 168.914 281.27 174.984C281.27 181.054 276.33 185.984 270.27 185.984Z" fill="#002809"/>
<path d="M270.27 162.454C263.37 162.454 257.75 168.074 257.75 174.974C257.75 181.874 263.37 187.484 270.27 187.484C277.17 187.484 282.78 181.874 282.78 174.974C282.78 168.074 277.17 162.454 270.27 162.454ZM270.27 185.984C264.21 185.984 259.27 181.044 259.27 174.984C259.27 168.924 264.21 163.984 270.27 163.984C276.33 163.984 281.27 168.914 281.27 174.984C281.27 181.054 276.33 185.984 270.27 185.984Z" fill="#002809"/>
<path d="M239.94 160.694H238.43V151.374H232.46V149.854H239.94V160.694Z" fill="#002809"/>
<path d="M282.52 139.994C282.1 139.314 281.35 138.854 280.49 138.854H260.04C259.19 138.854 258.43 139.314 258.01 139.994C257.79 140.354 257.66 140.774 257.66 141.234V156.644C257.66 157.954 256.6 159.014 255.29 159.014H232.45V167.434C232.45 168.384 233.03 169.234 233.9 169.624C235.75 170.424 238.88 172.284 240.37 176.024C240.73 176.914 241.59 177.504 242.56 177.504H253.58C254.85 177.504 255.89 176.504 255.95 175.234C256.14 171.484 257.56 164.114 265.6 161.504C268.06 160.714 270.7 160.624 273.23 161.144C275.07 161.514 277.32 162.204 279.27 163.494C280.81 164.504 282.86 163.304 282.86 161.464V141.234C282.86 140.774 282.74 140.354 282.51 139.994H282.52ZM267.75 155.654H261.03V142.214H267.75V155.654ZM279.51 155.654H272.79V142.214H279.51V155.654Z" fill="#002809"/>
<path d="M286.23 137.714H255.15V139.984H286.23V137.714Z" fill="#002809"/>
<path d="M50.5459 221H68.4559V223.94H60.9859V242H58.0459V223.94H50.5459V221Z" fill="#002809"/>
<path d="M87.197 221H90.137V234.47C90.137 235.97 89.747 237.34 88.967 238.58C88.207 239.8 87.147 240.77 85.787 241.49C84.447 242.19 82.947 242.54 81.287 242.54C79.647 242.54 78.147 242.19 76.787 241.49C75.447 240.77 74.387 239.8 73.607 238.58C72.847 237.34 72.467 235.97 72.467 234.47V221H75.407V234.47C75.407 235.45 75.657 236.33 76.157 237.11C76.677 237.89 77.377 238.5 78.257 238.94C79.157 239.38 80.167 239.6 81.287 239.6C82.407 239.6 83.417 239.38 84.317 238.94C85.217 238.5 85.917 237.89 86.417 237.11C86.937 236.33 87.197 235.45 87.197 234.47V221Z" fill="#002809"/>
<path d="M109.184 241.04C107.624 242.02 105.904 242.51 104.024 242.51C102.144 242.51 100.424 242.02 98.8637 241.04C97.3037 240.06 96.0637 238.73 95.1437 237.05C94.2437 235.37 93.7937 233.51 93.7937 231.47C93.7937 229.45 94.2437 227.6 95.1437 225.92C96.0637 224.22 97.3037 222.89 98.8637 221.93C100.424 220.95 102.144 220.46 104.024 220.46C105.904 220.46 107.624 220.95 109.184 221.93C110.744 222.89 111.974 224.22 112.874 225.92C113.794 227.6 114.254 229.45 114.254 231.47C114.254 233.51 113.794 235.37 112.874 237.05C111.974 238.73 110.744 240.06 109.184 241.04ZM107.684 224.48C106.584 223.76 105.364 223.4 104.024 223.4C102.684 223.4 101.454 223.76 100.334 224.48C99.2337 225.18 98.3537 226.15 97.6937 227.39C97.0537 228.63 96.7337 229.99 96.7337 231.47C96.7337 232.97 97.0537 234.34 97.6937 235.58C98.3537 236.82 99.2337 237.8 100.334 238.52C101.454 239.22 102.684 239.57 104.024 239.57C105.364 239.57 106.584 239.22 107.684 238.52C108.804 237.8 109.684 236.82 110.324 235.58C110.984 234.34 111.314 232.97 111.314 231.47C111.314 229.99 110.984 228.63 110.324 227.39C109.684 226.15 108.804 225.18 107.684 224.48Z" fill="#002809"/>
<path d="M115.225 221H133.135V223.94H125.665V242H122.725V223.94H115.225V221Z" fill="#002809"/>
<path d="M137.146 221H155.056V223.94H147.586V242H144.646V223.94H137.146V221Z" fill="#002809"/>
<path d="M153.768 242L162.168 221H165.348L173.748 242H170.568L168.288 236.3H159.228L156.948 242H153.768ZM160.398 233.36H167.118L163.758 224.96L160.398 233.36Z" fill="#002809"/>
<path d="M185.861 241.73C184.821 242.27 183.651 242.54 182.351 242.54C181.051 242.54 179.871 242.27 178.811 241.73C177.771 241.17 176.951 240.41 176.351 239.45C175.751 238.47 175.451 237.38 175.451 236.18V233.87H178.391V236.18C178.391 237.18 178.761 238 179.501 238.64C180.241 239.28 181.191 239.6 182.351 239.6C183.511 239.6 184.451 239.28 185.171 238.64C185.911 238 186.281 237.18 186.281 236.18V221H189.221V236.18C189.221 237.38 188.921 238.47 188.321 239.45C187.721 240.41 186.901 241.17 185.861 241.73Z" fill="#002809"/>
<path d="M190.93 242L199.33 221H202.51L210.91 242H207.73L205.45 236.3H196.39L194.11 242H190.93ZM197.56 233.36H204.28L200.92 224.96L197.56 233.36Z" fill="#002809"/>
<path d="M216.462 242H213.522V221H216.612L224.442 238.43L232.272 221H235.362V242H232.422V227.84L226.062 242H222.822L216.462 227.84V242Z" fill="#002809"/>
<path d="M238.259 242L246.659 221H249.839L258.239 242H255.059L252.779 236.3H243.719L241.439 242H238.259ZM244.889 233.36H251.609L248.249 224.96L244.889 233.36Z" fill="#002809"/>
<path d="M267.871 233H263.791V242H260.851V221H270.541C271.641 221 272.631 221.26 273.511 221.78C274.411 222.3 275.111 223.02 275.611 223.94C276.131 224.86 276.391 225.88 276.391 227C276.391 228.56 275.921 229.89 274.981 230.99C274.061 232.07 272.881 232.72 271.441 232.94L277.801 242H274.201L267.871 233ZM263.791 230.06H270.541C271.401 230.06 272.101 229.78 272.641 229.22C273.181 228.64 273.451 227.9 273.451 227C273.451 226.1 273.181 225.37 272.641 224.81C272.101 224.23 271.401 223.94 270.541 223.94H263.791V230.06Z" fill="#002809"/>
<path d="M288.341 230.24L298.391 242H294.521L286.211 232.22L283.661 234.59V242H280.721V221H283.661V230.57L293.981 221H298.301L288.341 230.24Z" fill="#002809"/>
<path d="M304.996 223.94V230.03H316.276V232.97H304.996V239.06H316.276V242H302.056V221H316.276V223.94H304.996Z" fill="#002809"/>
<path d="M320.286 221H338.196V223.94H330.726V242H327.786V223.94H320.286V221Z" fill="#002809"/>
<path d="M340.522 238.76C340.922 239.14 341.122 239.61 341.122 240.17C341.122 240.75 340.922 241.25 340.522 241.67C340.122 242.07 339.642 242.27 339.082 242.27C338.522 242.27 338.042 242.08 337.642 241.7C337.242 241.3 337.042 240.82 337.042 240.26C337.042 239.68 337.242 239.19 337.642 238.79C338.042 238.37 338.522 238.16 339.082 238.16C339.642 238.16 340.122 238.36 340.522 238.76Z" fill="#002809"/>
<path d="M347.732 223.94V230.03H357.902V232.97H347.732V242H344.792V221H357.902V223.94H347.732Z" fill="#002809"/>
<path d="M365.148 221V242H362.208V221H365.148Z" fill="#002809"/>
</svg>
