<svg width="100" height="100" viewBox="0 0 100 100" fill="none" xmlns="http://www.w3.org/2000/svg">
<rect width="100" height="100" rx="50" fill="white"/>
<path d="M50.8338 25.0015H49.5688V47.0899H50.8338V25.0015Z" fill="#B9C56C"/>
<path d="M50.8338 54.3811H49.5688V75H50.8338V54.3811Z" fill="#B9C56C"/>
<path d="M46.6492 49.3977H15V50.6029H46.6492V49.3977Z" fill="#B9C56C"/>
<path d="M85.394 49.3977H53.2515V50.6029H85.394V49.3977Z" fill="#B9C56C"/>
<path d="M43.0851 59.5893C44.6245 60.6359 46.8762 67.6275 39.9766 69.3191C37.124 67.9764 32.732 65.9677 31.6043 65.4004C30.5434 64.4383 30.4358 58.9902 35.7255 57.5701C35.9555 58.141 37.0498 58.5885 37.0498 58.5885C37.0498 58.5885 36.1744 59.4906 36.4971 60.7346C37.8214 60.4985 38.5929 59.7373 38.5929 59.7373C38.5929 59.7373 39.6167 61.6755 41.1339 61.8412C41.6829 60.8791 41.5123 59.8008 41.5123 59.8008C41.5123 59.8008 42.2727 59.984 43.0888 59.5928L43.0851 59.5893Z" fill="#002809"/>
<path d="M42.5471 58.976C42.0574 58.2466 40.7776 57.5488 39.5646 57.5488C40.1544 56.8475 39.4571 55.7375 39.4571 55.7375L38.8895 56.0511C38.8895 56.0511 39.5498 56.8934 39.2197 57.5418C37.9992 56.7136 36.1556 57.1577 36.1556 57.1577C36.1556 57.1577 36.6787 57.9576 37.9621 58.3276C37.4577 58.7963 37.1238 59.8747 37.1238 59.8747C37.1238 59.8747 38.3294 59.5328 38.9192 58.902C39.1455 59.9381 40.7331 60.8015 40.7331 60.8015C40.7331 60.8015 41.1152 59.7055 40.7739 58.9866C41.9943 59.1981 42.5508 58.9725 42.5508 58.9725L42.5471 58.976Z" fill="#002809"/>
<path d="M24.4407 71.7615L26.7146 65.3902C26.9223 64.8052 27.6346 64.5303 28.2206 64.8087L29.838 65.5805L29.4299 70.1264L32.0525 66.6377L34.9793 68.0332L34.7011 71.1413L36.6115 68.812L40.1392 70.4929L39.746 72.3254L41.1741 70.9827L45.6885 73.1359C45.8332 73.2064 45.7813 73.4108 45.6181 73.4108L25.446 73.0971C24.7189 73.0866 24.2107 72.4135 24.4444 71.7615H24.4407Z" fill="#002809"/>
<path d="M25.502 68.9316C25.1607 67.6489 22.5084 63.8324 21.2472 64.8543C20.1863 65.7142 25.502 68.9316 25.502 68.9316Z" fill="#002809"/>
<path d="M25.6307 69.0336C23.8872 68.8151 19.4507 68.6777 19.6881 70.2247C19.8921 71.5286 25.6307 69.0336 25.6307 69.0336Z" fill="#002809"/>
<path d="M25.7544 68.9883C24.6675 68.1495 15.6535 64.9498 15.2937 66.4756C14.9895 67.7619 25.7544 68.9883 25.7544 68.9883Z" fill="#002809"/>
<path d="M32.8572 34.4564C32.8424 34.2661 32.8053 34.0829 32.7422 33.9137C32.5345 33.3217 32.0671 32.8459 31.4698 32.6063C31.2992 32.5358 31.1137 32.49 30.9246 32.4618C30.8133 32.4477 30.7057 32.4407 30.5944 32.4407C30.4386 32.4407 30.2977 32.4548 30.1493 32.483H30.1456C29.9564 32.5182 29.782 32.5746 29.6188 32.6486C29.0401 32.9094 28.5987 33.3957 28.417 33.9877C28.3576 34.1674 28.3316 34.3577 28.3242 34.5551V34.5938C28.3242 34.6608 28.3242 34.7207 28.3316 34.7806C28.3465 34.9709 28.391 35.1506 28.454 35.3198C28.6729 35.8942 29.1403 36.3558 29.7338 36.5919H29.7375C29.9119 36.6589 30.0899 36.7047 30.2828 36.7259H30.2865C30.3867 36.7399 30.4868 36.747 30.5907 36.747C30.6501 36.747 30.7094 36.7435 30.765 36.7399H30.7688C30.9654 36.7259 31.1583 36.6871 31.3363 36.6272C31.9558 36.4228 32.4454 35.9752 32.6866 35.4079C32.7607 35.2422 32.809 35.0731 32.8386 34.8898C32.8535 34.7912 32.8572 34.6925 32.8572 34.5938C32.8572 34.5445 32.8572 34.4987 32.8535 34.4529L32.8572 34.4564ZM30.5944 36.2536C29.6337 36.2536 28.8473 35.5101 28.8473 34.5938C28.8473 33.6776 29.63 32.9305 30.5944 32.9305C31.5589 32.9305 32.3453 33.6776 32.3453 34.5938C32.3453 35.5101 31.5589 36.2536 30.5944 36.2536Z" fill="#002809"/>
<path d="M31.4048 34.5941C31.4048 35.0169 31.045 35.3588 30.5999 35.3588C30.1547 35.3588 29.7949 35.0169 29.7949 34.5941C29.7949 34.1712 30.1547 33.8293 30.5999 33.8293C31.045 33.8293 31.4048 34.1712 31.4048 34.5941Z" fill="#002809"/>
<path d="M32.7288 34.5551L32.4024 34.1675L40.1329 28.2859C40.1737 28.2542 40.1849 28.2119 40.1849 28.1908C40.1849 28.1697 40.1849 28.1274 40.1478 28.0886L37.655 25.5372C37.6142 25.4985 37.5697 25.4949 37.5474 25.4949C37.5215 25.4949 37.477 25.502 37.4399 25.5443L31.2525 32.8636L30.8481 32.5535L37.0318 25.2377C37.1542 25.0932 37.3323 25.0086 37.5252 25.0016C37.7144 24.9875 37.9036 25.0685 38.0334 25.2025L40.5261 27.7538C40.6523 27.8807 40.7153 28.0534 40.7005 28.226C40.6857 28.3987 40.5966 28.5608 40.4557 28.6701L32.7251 34.5551H32.7288Z" fill="#002809"/>
<path d="M38.8341 29.6425L36.0557 26.693L36.4414 26.3652L39.2198 29.3148L38.8341 29.6425Z" fill="#002809"/>
<path d="M34.9875 28.0752L34.6027 28.4065L37.0386 30.9605L37.4235 30.6292L34.9875 28.0752Z" fill="#002809"/>
<path d="M33.648 29.7518L33.2623 30.0823L35.3121 32.2411L35.6977 31.9107L33.648 29.7518Z" fill="#002809"/>
<path d="M32.2721 31.3645L31.8838 31.6921L33.6524 33.5839L34.0407 33.2563L32.2721 31.3645Z" fill="#002809"/>
<path d="M37.3843 44.2041C37.3843 44.2041 37.3509 44.2041 37.336 44.2041C37.1543 44.19 36.9836 44.1054 36.8686 43.9715L30.6738 36.6275L31.0819 36.3174L37.273 43.6614C37.3064 43.7001 37.3509 43.7107 37.3731 43.7107C37.3954 43.7107 37.4399 43.7107 37.4807 43.6755L40.1664 41.3073C40.2072 41.2721 40.2109 41.2263 40.2109 41.2052C40.2109 41.1805 40.2034 41.1382 40.1589 41.103L32.4544 35.2249L32.7808 34.8408L40.4854 40.7188C40.6375 40.8351 40.7265 41.0043 40.7339 41.1875C40.7413 41.3708 40.6634 41.547 40.5225 41.6703L37.8368 44.0384C37.7144 44.1477 37.5512 44.2076 37.3843 44.2076V44.2041Z" fill="#002809"/>
<path d="M36.1933 42.7943L35.8446 42.4278L38.9494 39.7883L39.2981 40.1548L36.1933 42.7943Z" fill="#002809"/>
<path d="M37.1511 38.4043L34.4648 40.7207L34.8139 41.086L37.5001 38.7696L37.1511 38.4043Z" fill="#002809"/>
<path d="M35.3816 37.135L33.1099 39.083L33.4578 39.4492L35.7296 37.5012L35.3816 37.135Z" fill="#002809"/>
<path d="M33.6937 35.8189L31.702 37.4988L32.0468 37.8677L34.0385 36.1878L33.6937 35.8189Z" fill="#002809"/>
<path d="M28.3293 34.5552L20.5987 28.6737C20.4541 28.5645 20.365 28.4023 20.3502 28.2297C20.3353 28.057 20.4021 27.8843 20.5245 27.7539L23.0173 25.2026C23.1471 25.0686 23.3252 24.9911 23.5255 25.0017C23.7184 25.0087 23.8964 25.0933 24.0189 25.2378L30.2062 32.5571L29.8019 32.8672L23.6182 25.5479C23.5811 25.5056 23.5366 25.4986 23.5107 25.4986C23.4884 25.4986 23.4402 25.4986 23.4031 25.5409L20.9103 28.0922C20.8732 28.131 20.8695 28.1733 20.8732 28.1944C20.8732 28.2156 20.8844 28.2579 20.9252 28.2896L28.6557 34.1711L28.3293 34.5588V34.5552Z" fill="#002809"/>
<path d="M22.2231 29.6425L21.8336 29.3148L24.612 26.3652L25.0015 26.6929L22.2231 29.6425Z" fill="#002809"/>
<path d="M26.0722 28.0753L23.6339 30.6272L24.0184 30.9588L26.4568 28.4068L26.0722 28.0753Z" fill="#002809"/>
<path d="M27.4056 29.75L25.3551 31.9082L25.7406 32.2388L27.7911 30.0806L27.4056 29.75Z" fill="#002809"/>
<path d="M28.7919 31.3645L27.0236 33.2566L27.4119 33.5841L29.1802 31.692L28.7919 31.3645Z" fill="#002809"/>
<path d="M23.6734 44.2038C23.5065 44.2038 23.3432 44.1439 23.2208 44.0347L20.5352 41.6665C20.3942 41.5432 20.3163 41.367 20.3237 41.1838C20.3311 41.0005 20.4202 40.8314 20.5723 40.7151L28.44 34.7031L28.7665 35.0872L20.8987 41.0992C20.8542 41.1344 20.8468 41.1767 20.8468 41.1978C20.8468 41.2225 20.8505 41.2648 20.8913 41.3036L23.5769 43.6717C23.6177 43.7069 23.6622 43.7069 23.6845 43.7069C23.7068 43.7069 23.7513 43.6964 23.7847 43.6576L29.9758 36.3136L30.3838 36.6237L24.1927 43.9677C24.0777 44.1016 23.9071 44.1897 23.7253 44.2003C23.7105 44.2003 23.6919 44.2003 23.6771 44.2003L23.6734 44.2038Z" fill="#002809"/>
<path d="M24.865 42.7943L21.7601 40.1548L22.1051 39.7883L25.2099 42.4278L24.865 42.7943Z" fill="#002809"/>
<path d="M23.9062 38.4076L23.5575 38.7732L26.2459 41.0874L26.5946 40.7218L23.9062 38.4076Z" fill="#002809"/>
<path d="M25.669 37.1339L25.3212 37.5002L27.5936 39.4475L27.9415 39.0811L25.669 37.1339Z" fill="#002809"/>
<path d="M27.3666 35.8195L27.0219 36.1885L29.0135 37.8684L29.3583 37.4994L27.3666 35.8195Z" fill="#002809"/>
<path d="M26.0142 46.6387C25.9585 46.8254 25.9029 46.977 25.8621 47.0897H25.8398L25.9734 46.6387H26.0142Z" fill="#002809"/>
<path d="M35.3624 46.6357L33.4855 40.4194L30.5772 37.0469L27.5726 40.5604C27.5726 40.5604 27.0718 42.6642 26.597 44.5178V44.5425C26.3818 45.36 26.1741 46.1283 26.0183 46.6392C25.9627 46.826 25.907 46.9776 25.8662 47.0903H35.4997L35.3624 46.6322V46.6357ZM29.2196 43.5381C29.2196 42.2166 29.6907 40.5427 30.6774 40.5427C31.6641 40.5427 32.2354 42.1391 32.2354 43.5381C30.4548 44.183 29.2196 43.5381 29.2196 43.5381Z" fill="#002809"/>
<path d="M60.5894 27.4082C60.5894 27.4082 60.352 29.6424 63.9056 30.7807C63.9056 30.7807 64.3545 28.0742 60.5894 27.4082Z" fill="#002809"/>
<path d="M60.333 30.502C60.333 30.502 60.0956 32.7362 63.6493 33.8744C63.6493 33.8744 64.0981 31.168 60.333 30.502Z" fill="#002809"/>
<path d="M60.333 33.7795C60.333 33.7795 60.0956 36.0138 63.6493 37.152C63.6493 37.152 64.0981 34.4456 60.333 33.7795Z" fill="#002809"/>
<path d="M60.3037 36.8982C60.3037 36.8982 60.0663 39.1324 63.62 40.2707C63.62 40.2707 64.0688 37.5642 60.3037 36.8982Z" fill="#002809"/>
<path d="M67.177 27.6726C67.177 27.6726 67.3476 29.9174 63.7569 30.8548C63.7569 30.8548 63.3896 28.1237 67.177 27.6726Z" fill="#002809"/>
<path d="M67.177 30.7736C67.177 30.7736 67.3476 33.0184 63.7569 33.9558C63.7569 33.9558 63.3896 31.2247 67.177 30.7736Z" fill="#002809"/>
<path d="M67.0773 34.0505C67.0773 34.0505 67.2479 36.2953 63.6571 37.2326C63.6571 37.2326 63.2899 34.5051 67.0773 34.0505Z" fill="#002809"/>
<path d="M67.0098 37.1663C67.0098 37.1663 67.1804 39.411 63.5896 40.3484C63.5896 40.3484 63.2224 37.6209 67.0098 37.1663Z" fill="#002809"/>
<path d="M64.0196 28.0391C64.0085 28.543 64.0048 29.0505 63.9862 29.5544C63.9825 29.9702 63.9714 30.3861 63.964 30.8019C63.9603 30.8583 63.9603 30.9111 63.9603 30.971C63.9454 31.5913 63.9343 32.2115 63.9158 32.8317C63.9121 33.1947 63.9046 33.5577 63.8935 33.9206C63.8787 34.6219 63.8601 35.3267 63.849 36.0244C63.8379 36.4121 63.8267 36.7962 63.823 37.1874C63.8082 37.8393 63.7971 38.4983 63.7785 39.1502C63.7674 39.5343 63.7637 39.922 63.7525 40.3061C63.7303 41.4056 63.7043 42.498 63.6821 43.5975C63.6561 44.7604 63.6338 45.9269 63.6042 47.0898H63.2184C63.274 44.7921 63.3223 42.4875 63.3742 40.1828C63.3853 39.7528 63.3964 39.3194 63.4001 38.8824C63.415 38.2833 63.4261 37.6842 63.4447 37.0852C63.4484 36.7328 63.4595 36.3768 63.4669 36.0244C63.4669 35.9716 63.4669 35.9152 63.4706 35.8623C63.4818 35.1822 63.4966 34.5056 63.5151 33.8255C63.5189 33.4731 63.53 33.1172 63.5374 32.7648C63.5522 32.0635 63.5708 31.3693 63.5819 30.6715C63.593 30.1993 63.6042 29.72 63.6153 29.2478C63.6264 28.8496 63.6301 28.4443 63.6413 28.0426C63.645 27.81 64.0271 27.81 64.0233 28.0426L64.0196 28.0391Z" fill="#002809"/>
<path d="M70.058 27.4082C70.058 27.4082 69.8206 29.6424 73.3743 30.7807C73.3743 30.7807 73.8231 28.0742 70.058 27.4082Z" fill="#002809"/>
<path d="M69.7988 30.502C69.7988 30.502 69.5614 32.7362 73.1151 33.8744C73.1151 33.8744 73.5639 31.168 69.7988 30.502Z" fill="#002809"/>
<path d="M69.7988 33.7795C69.7988 33.7795 69.5614 36.0138 73.1151 37.152C73.1151 37.152 73.5639 34.4456 69.7988 33.7795Z" fill="#002809"/>
<path d="M69.7695 36.8982C69.7695 36.8982 69.5321 39.1324 73.0858 40.2707C73.0858 40.2707 73.5346 37.5642 69.7695 36.8982Z" fill="#002809"/>
<path d="M76.643 27.6726C76.643 27.6726 76.8136 29.9174 73.2228 30.8548C73.2228 30.8548 72.8556 28.1272 76.643 27.6726Z" fill="#002809"/>
<path d="M76.6472 30.7736C76.6472 30.7736 76.8179 33.0184 73.2271 33.9558C73.2271 33.9558 72.8599 31.2247 76.6472 30.7736Z" fill="#002809"/>
<path d="M76.5433 34.0505C76.5433 34.0505 76.714 36.2953 73.1232 37.2326C73.1232 37.2326 72.756 34.5015 76.5433 34.0505Z" fill="#002809"/>
<path d="M76.4758 37.1663C76.4758 37.1663 76.6465 39.411 73.0557 40.3484C73.0557 40.3484 72.6885 37.6173 76.4758 37.1663Z" fill="#002809"/>
<path d="M73.4936 28.0391C73.4824 28.543 73.4713 29.0434 73.4602 29.5438C73.449 29.9632 73.4379 30.3861 73.4342 30.8019C73.4305 30.8583 73.4305 30.9111 73.4305 30.971C73.4157 31.5913 73.4045 32.2115 73.386 32.8317C73.3823 33.1947 73.3748 33.5577 73.3637 33.9206C73.3489 34.6254 73.3303 35.3267 73.3192 36.0315C73.3081 36.4191 73.2969 36.8033 73.2932 37.1874C73.2784 37.8393 73.2673 38.4983 73.2487 39.1502C73.2376 39.5343 73.2339 39.922 73.2228 40.3061C73.2005 41.4056 73.1745 42.498 73.1523 43.5975C73.1263 44.7604 73.1041 45.9269 73.0744 47.0898H72.6886C72.7442 44.7921 72.7925 42.4875 72.8444 40.1828C72.8555 39.7528 72.8666 39.3194 72.8704 38.8824C72.8852 38.2833 72.8963 37.6842 72.9149 37.0852C72.9186 36.7328 72.9297 36.3768 72.9371 36.0244C72.9371 35.9716 72.9371 35.9152 72.9408 35.8623C72.952 35.1822 72.9668 34.5056 72.9854 33.8255C72.9891 33.4731 73.0002 33.1172 73.0076 32.7648C73.0225 32.0635 73.041 31.3693 73.0521 30.6715C73.0633 30.1993 73.0744 29.72 73.0855 29.2478C73.0966 28.8496 73.1003 28.4443 73.1115 28.0426C73.1152 27.81 73.4973 27.81 73.4973 28.0426L73.4936 28.0391Z" fill="#002809"/>
<path d="M59.7325 67.8606C58.1856 67.8606 56.9281 69.0517 56.9281 70.5247C56.9281 71.9978 58.1819 73.1889 59.7325 73.1889C61.283 73.1889 62.5368 71.9978 62.5368 70.5247C62.5368 69.0517 61.283 67.8606 59.7325 67.8606ZM59.7325 72.921C58.3414 72.921 57.2063 71.8462 57.2063 70.5212C57.2063 69.1962 58.3377 68.1214 59.7325 68.1214C61.1272 68.1214 62.2586 69.1962 62.2586 70.5212C62.2586 71.8462 61.1272 72.921 59.7325 72.921Z" fill="#002809"/>
<path d="M59.7332 67.5889C58.0343 67.5889 56.647 68.9033 56.647 70.5208C56.647 72.1383 58.0343 73.4493 59.7332 73.4493C61.4322 73.4493 62.8158 72.1348 62.8158 70.5208C62.8158 68.9068 61.4322 67.5889 59.7332 67.5889ZM59.7332 72.9207C58.3422 72.9207 57.2071 71.8459 57.2071 70.5208C57.2071 69.1958 58.3385 68.121 59.7332 68.121C61.128 68.121 62.2594 69.1958 62.2594 70.5208C62.2594 71.8459 61.128 72.9207 59.7332 72.9207Z" fill="#002809"/>
<path d="M74.3803 64.8964C71.9691 64.8964 70.0179 66.7536 70.0179 69.0442C70.0179 71.3348 71.9691 73.1884 74.3803 73.1884C76.7914 73.1884 78.7426 71.3348 78.7426 69.0442C78.7426 66.7536 76.7914 64.8964 74.3803 64.8964ZM74.3803 72.9206C72.1323 72.9206 70.2999 71.1797 70.2999 69.0442C70.2999 66.9086 72.1323 65.1678 74.3803 65.1678C76.6282 65.1678 78.4607 66.9051 78.4607 69.0442C78.4607 71.1832 76.6282 72.9206 74.3803 72.9206Z" fill="#002809"/>
<path d="M74.3811 64.6284C71.8215 64.6284 69.7368 66.6089 69.7368 69.0405C69.7368 71.472 71.8215 73.449 74.3811 73.449C76.9406 73.449 79.0216 71.472 79.0216 69.0405C79.0216 66.6089 76.9406 64.6284 74.3811 64.6284ZM74.3811 72.9204C72.1331 72.9204 70.3007 71.1795 70.3007 69.044C70.3007 66.9084 72.1331 65.1676 74.3811 65.1676C76.629 65.1676 78.4615 66.9049 78.4615 69.044C78.4615 71.183 76.629 72.9204 74.3811 72.9204Z" fill="#002809"/>
<path d="M63.1306 64.0085H62.5705V60.7241H60.356V60.1885H63.1306V64.0085Z" fill="#002809"/>
<path d="M78.9249 56.7142C78.7691 56.4746 78.4909 56.3125 78.1718 56.3125H70.586C70.2707 56.3125 69.9888 56.4746 69.833 56.7142C69.7514 56.8411 69.7031 56.9891 69.7031 57.1512V62.5817C69.7031 63.0433 69.3099 63.4169 68.824 63.4169H60.3516V66.3841C60.3516 66.7189 60.5667 67.0184 60.8894 67.1558C61.5757 67.4378 62.7367 68.0932 63.2895 69.4112C63.423 69.7248 63.742 69.9327 64.1018 69.9327H68.1897C68.6608 69.9327 69.0466 69.5803 69.0688 69.1328C69.1393 67.8113 69.666 65.2141 72.6484 64.2943C73.561 64.016 74.5403 63.9842 75.4788 64.1675C76.1613 64.2979 76.9959 64.541 77.7193 64.9956C78.2905 65.3515 79.051 64.9287 79.051 64.2803V57.1512C79.051 56.9891 79.0065 56.8411 78.9212 56.7142H78.9249ZM73.446 62.2328H70.9532V57.4966H73.446V62.2328ZM77.8083 62.2328H75.3156V57.4966H77.8083V62.2328Z" fill="#002809"/>
<path d="M80.3019 55.9104H68.7728V56.7103H80.3019V55.9104Z" fill="#002809"/>
</svg>
